<?xml version="1.0" encoding="UTF-8" standalone="no"?>
<!DOCTYPE svg PUBLIC "-//W3C//DTD SVG 1.1//EN" "http://www.w3.org/Graphics/SVG/1.1/DTD/svg11.dtd">
<svg width="100%" height="100%" viewBox="0 0 651 267" version="1.1" xmlns="http://www.w3.org/2000/svg" xmlns:xlink="http://www.w3.org/1999/xlink" xml:space="preserve" xmlns:serif="http://www.serif.com/" style="fill-rule:evenodd;clip-rule:evenodd;stroke-linejoin:round;stroke-miterlimit:2;">
    <g transform="matrix(1,0,0,1,1.05183,4.45875)">
        <g id="Artboard1" transform="matrix(1.08698,0,0,1.27437,-353.779,-325.822)">
            <clipPath id="_clip1">
                <rect x="325.468" y="255.673" width="567.999" height="184.735"/>
            </clipPath>
            <g clip-path="url(#_clip1)">
                <rect x="324.501" y="252.174" width="598.406" height="209.421" style="fill:none;"/>
                <g transform="matrix(5.38298,0,0,4.59145,-1881.11,-1138.76)">
                    <g transform="matrix(50,0,0,50,415.765,343.965)">
                        <path d="M0.073,0L0.073,-0.716L0.305,-0.716C0.393,-0.716 0.45,-0.712 0.477,-0.705C0.518,-0.694 0.552,-0.671 0.58,-0.635C0.607,-0.599 0.621,-0.553 0.621,-0.496C0.621,-0.452 0.613,-0.415 0.597,-0.385C0.581,-0.355 0.561,-0.331 0.536,-0.314C0.512,-0.297 0.487,-0.286 0.461,-0.28C0.427,-0.273 0.377,-0.27 0.312,-0.27L0.217,-0.27L0.217,0L0.073,0ZM0.217,-0.595L0.217,-0.392L0.296,-0.392C0.353,-0.392 0.391,-0.395 0.411,-0.403C0.43,-0.41 0.445,-0.422 0.456,-0.438C0.467,-0.454 0.472,-0.472 0.472,-0.494C0.472,-0.52 0.465,-0.541 0.449,-0.558C0.434,-0.575 0.415,-0.586 0.391,-0.59C0.374,-0.593 0.339,-0.595 0.287,-0.595L0.217,-0.595Z" style="fill-rule:nonzero;"/>
                    </g>
                    <g transform="matrix(50,0,0,50,444.842,343.965)">
                        <path d="M0.072,-0.589C0.049,-0.61 0.049,-0.695 0.072,-0.716C0.095,-0.737 0.186,-0.737 0.209,-0.716C0.232,-0.695 0.232,-0.61 0.209,-0.589C0.186,-0.568 0.095,-0.568 0.072,-0.589ZM0.072,0L0.072,-0.519L0.209,-0.519L0.209,0L0.072,0Z" style="fill-rule:nonzero;"/>
                    </g>
                    <g transform="matrix(50,0,0,50,456.17,343.965)">
                        <path d="M0.006,0L0.193,-0.267L0.014,-0.519L0.181,-0.519L0.273,-0.376L0.37,-0.519L0.531,-0.519L0.355,-0.273L0.547,0L0.378,0L0.273,-0.161L0.167,0L0.006,0Z" style="fill-rule:nonzero;"/>
                    </g>
                    <g transform="matrix(50,0,0,50,481.756,343.965)">
                        <path d="M0.073,0L0.073,-0.716L0.604,-0.716L0.604,-0.595L0.217,-0.595L0.217,-0.436L0.577,-0.436L0.577,-0.315L0.217,-0.315L0.217,-0.121L0.617,-0.121L0.617,0L0.073,0Z" style="fill:rgb(0,188,255);fill-rule:nonzero;"/>
                    </g>
                </g>
            </g>
        </g>
    </g>
</svg>
